# xmcd CD database file
#
# Track frame offsets:
#	150
#	13441
#	28605
#	47074
#	64499
#	81840
#	99458
#	114218
#	132510
#	146737
#	165843
#
# Disc length: 2422 seconds
#
# Revision: 18
# Processed by: cddbd v1.5.1PL2 Copyright (c) Steve Scherf et al.
# Submitted via: CDex 1.51
#
DISCID=9409740b
DTITLE=Trio Agape - Cristo Te Dice Ven
DYEAR=2006
DGENRE=Rock
TTITLE0=Trio Agape - Meditacion 
TTITLE1=Trio Agape - Perdoname Padre 
TTITLE2=Trio Agape - Levantate 
TTITLE3=Trio Agape - Gracias Senor 
TTITLE4=Trio Agape - Cristo Vive 
TTITLE5=Trio Agape - De Gozo Canto 
TTITLE6=Trio Agape - Gracias A Ti Senor 
TTITLE7=Trio Agape - Cristo - Lo Mas Hermoso 
TTITLE8=Trio Agape - Cristo Te Dice Ven 
TTITLE9=Trio Agape - Angeles 
TTITLE10=Trio Agape - Yo Le Alabo 
EXTD=YEAR: 2006
EXTT0=
EXTT1=
EXTT2=
EXTT3=
EXTT4=
EXTT5=
EXTT6=
EXTT7=
EXTT8=
EXTT9=
EXTT10=
PLAYORDER=
